<?xml version="1.0" encoding="UTF-8" standalone="no"?>
<!DOCTYPE svg PUBLIC "-//W3C//DTD SVG 20010904//EN"
              "http://www.w3.org/TR/2001/REC-SVG-20010904/DTD/svg10.dtd">

<svg xmlns="http://www.w3.org/2000/svg"
     width="100%" height="100%"
     viewBox="0 0 331 577">
    <defs>
      <style>
        #svgPath{
          animation-name: fillImage, fillStroke;
          animation-duration: 1s,2s;
          animation-fill-mode: forwards,forwards;
          animation-iteration-count:1, 1;
        }

        @keyframes fillImage{
          from{fill:transparent}
          to{fill:#282A36}
        }
        @keyframes fillStroke{
          from{stroke:transparent}
          to{stroke:#BD93F9}
        }
      
      
      </style>
      
    </defs> 


  <path id="svgPath"
        fill="none" stroke="#BD93F9" stroke-width="1"
        d="M 79.16,8.58
           C 82.96,11.31 91.29,13.03 96.03,14.98
             98.77,16.10 115.47,26.07 117.82,27.95
             122.01,31.28 131.86,46.86 135.41,52.20
             135.41,52.20 124.16,48.46 124.16,48.46
             112.57,44.32 92.45,36.74 80.56,36.72
             80.56,36.72 68.61,36.72 68.61,36.72
             68.61,36.72 57.36,36.02 57.36,36.02
             57.36,36.02 48.22,35.34 48.22,35.34
             48.22,35.34 37.67,35.34 37.67,35.34
             37.67,35.34 27.83,34.62 27.83,34.62
             26.07,34.58 23.88,34.56 22.20,35.07
             22.20,35.07 1.81,45.16 1.81,45.16
             5.81,46.74 8.94,44.98 13.06,45.60
             13.06,45.60 34.16,49.78 34.16,49.78
             34.16,49.78 48.22,51.23 48.22,51.23
             51.00,52.03 55.41,54.76 58.06,56.20
             64.35,59.61 67.93,60.02 70.72,66.97
             70.72,66.97 60.38,71.24 60.38,71.24
             57.70,73.04 49.96,83.53 47.72,86.66
             45.33,90.02 40.13,97.30 38.47,100.73
             34.32,109.23 31.36,120.81 31.34,130.27
             31.34,130.27 30.67,140.12 30.67,140.12
             30.67,140.12 30.67,149.97 30.67,149.97
             30.67,149.97 47.12,129.72 47.12,129.72
             47.12,129.72 55.95,123.94 55.95,123.94
             55.95,123.94 60.88,123.94 60.88,123.94
             50.17,135.60 48.35,138.83 40.78,152.08
             39.49,154.34 37.55,157.47 36.65,159.82
             35.96,161.62 36.05,163.25 34.16,164.04
             34.16,164.04 29.31,185.84 29.31,185.84
             29.31,185.84 29.31,192.17 29.31,192.17
             29.31,192.17 27.13,215.38 27.13,215.38
             28.83,218.32 29.18,223.14 27.13,225.94
             27.13,225.94 29.33,239.30 29.33,239.30
             29.33,239.30 32.05,260.40 32.05,260.40
             32.05,260.40 27.83,258.29 27.83,258.29
             27.83,258.29 27.13,262.51 27.13,262.51
             27.13,262.51 29.23,261.11 29.23,261.11
             29.23,261.11 27.13,266.73 27.13,266.73
             27.13,266.73 29.23,264.62 29.23,264.62
             29.23,264.62 29.23,267.44 29.23,267.44
             29.23,267.44 30.64,266.73 30.64,266.73
             30.64,266.73 30.64,273.06 30.64,273.06
             33.95,276.79 30.70,281.27 27.83,284.32
             27.83,284.32 29.23,288.54 29.23,288.54
             29.23,288.54 26.42,289.24 26.42,289.24
             26.42,289.24 24.31,295.57 24.31,295.57
             24.31,295.57 22.91,294.17 22.91,294.17
             22.91,294.17 22.20,294.17 22.20,294.17
             21.45,296.09 18.46,296.40 16.58,296.98
             16.58,296.98 16.58,305.42 16.58,305.42
             16.58,305.42 19.39,305.42 19.39,305.42
             19.39,305.42 17.28,306.12 17.28,306.12
             17.28,306.12 17.28,311.75 17.28,311.75
             14.61,313.92 17.04,320.37 17.28,323.71
             18.62,326.02 17.37,326.94 16.58,329.34
             16.58,329.34 14.47,328.63 14.47,328.63
             14.47,328.63 16.58,331.45 16.58,331.45
             16.58,331.45 12.36,330.04 12.36,330.04
             14.09,336.60 15.12,337.29 18.69,342.70
             18.69,342.70 17.98,340.59 17.98,340.59
             20.70,341.29 20.19,343.30 21.75,345.51
             21.75,345.51 24.52,349.03 24.52,349.03
             26.41,351.91 27.20,357.36 28.53,360.99
             28.53,360.99 18.57,365.50 18.57,365.50
             18.57,365.50 12.36,366.62 12.36,366.62
             12.36,366.62 28.53,402.49 28.53,402.49
             28.53,402.49 15.28,401.79 15.28,401.79
             15.16,402.76 14.99,403.50 15.28,404.48
             16.42,406.92 25.23,412.46 27.76,414.77
             30.89,417.64 31.72,421.26 33.45,425.00
             33.45,425.00 12.36,425.00 12.36,425.00
             12.36,425.00 21.06,434.14 21.06,434.14
             21.06,434.14 30.11,451.02 30.11,451.02
             30.11,451.02 45.23,480.57 45.23,480.57
             45.23,480.57 54.97,499.56 54.97,499.56
             54.97,499.56 74.44,523.15 74.44,523.15
             74.44,523.15 90.41,535.34 90.41,535.34
             90.41,535.34 110.09,550.06 110.09,550.06
             110.09,550.06 124.86,559.38 124.86,559.38
             124.86,559.38 149.47,574.34 149.47,574.34
             152.96,575.52 158.43,575.48 162.13,575.53
             162.13,575.53 169.16,576.19 169.16,576.19
             169.16,576.19 181.11,576.19 181.11,576.19
             186.36,576.16 190.45,573.65 195.17,571.52
             195.17,571.52 203.61,567.54 203.61,567.54
             203.61,567.54 227.52,550.44 227.52,550.44
             227.52,550.44 254.23,530.75 254.23,530.75
             254.23,530.75 267.93,519.75 267.93,519.75
             267.93,519.75 275.13,509.41 275.13,509.41
             275.13,509.41 287.27,491.82 287.27,491.82
             287.27,491.82 297.36,473.53 297.36,473.53
             297.36,473.53 310.96,452.43 310.96,452.43
             310.96,452.43 319.36,439.77 319.36,439.77
             319.36,439.77 324.14,425.00 324.14,425.00
             324.14,425.00 329.47,406.71 329.47,406.71
             329.47,406.71 314.70,418.67 314.70,418.67
             314.70,418.67 326.66,381.39 326.66,381.39
             326.66,381.39 320.33,387.01 320.33,387.01
             320.33,387.01 323.25,366.62 323.25,366.62
             323.25,366.62 327.36,351.84 327.36,351.84
             327.36,351.84 315.38,363.06 315.38,363.06
             315.38,363.06 306.97,363.06 306.97,363.06
             306.97,363.06 308.80,347.63 308.80,347.63
             309.97,344.56 312.99,343.69 313.84,341.77
             314.57,340.34 313.80,339.04 313.84,337.07
             313.73,333.81 316.38,328.80 312.59,327.23
             313.79,322.91 315.98,320.04 316.66,314.56
             317.04,311.53 315.86,309.58 314.89,306.82
             312.90,301.11 311.07,292.18 304.88,289.94
             304.88,289.94 304.88,308.23 304.88,308.23
             304.88,308.23 303.00,322.18 303.00,322.18
             303.00,322.18 303.00,327.93 303.00,327.93
             303.00,327.93 300.01,335.67 300.01,335.67
             300.01,335.67 297.17,344.81 297.17,344.81
             297.17,344.81 295.95,349.52 295.95,349.52
             295.95,349.52 292.20,351.84 292.20,351.84
             292.51,356.57 292.13,360.27 286.58,360.99
             286.58,360.99 283.77,364.51 283.77,364.51
             283.77,364.51 285.88,369.43 285.88,369.43
             285.88,369.43 284.47,365.91 284.47,365.91
             284.47,365.91 280.95,367.32 280.95,367.32
             280.03,371.26 278.09,371.42 275.54,374.08
             272.21,377.54 274.39,378.00 268.30,379.98
             268.30,379.98 269.00,385.61 269.00,385.61
             266.32,386.06 266.24,386.13 264.78,388.42
             264.78,388.42 262.67,387.72 262.67,387.72
             262.67,387.72 261.27,392.64 261.27,392.64
             258.54,390.30 257.03,390.19 256.34,394.05
             256.34,394.05 254.94,391.23 254.94,391.23
             254.94,391.23 250.72,396.16 250.72,396.16
             248.47,393.11 248.34,392.77 249.31,389.12
             244.71,386.77 242.37,384.33 241.43,383.88
             241.43,383.88 234.55,381.72 234.55,381.72
             230.26,379.76 228.64,377.40 226.11,373.65
             226.11,373.65 224.70,374.35 224.70,374.35
             224.70,374.35 222.59,372.24 222.59,372.24
             222.59,372.24 221.89,374.35 221.89,374.35
             221.89,374.35 211.41,370.18 211.41,370.18
             211.41,370.18 206.42,368.02 206.42,368.02
             206.42,368.02 207.83,365.91 207.83,365.91
             207.83,365.91 205.02,366.62 205.02,366.62
             205.02,366.62 204.31,363.10 204.31,363.10
             204.31,363.10 201.50,359.58 201.50,359.58
             201.50,359.58 200.09,360.99 200.09,360.99
             200.09,360.99 193.77,356.06 193.77,356.06
             193.77,356.06 194.47,353.95 194.47,353.95
             194.47,353.95 183.92,352.55 183.92,352.55
             183.92,352.55 183.92,353.95 183.92,353.95
             183.92,353.95 188.84,354.66 188.84,354.66
             185.87,355.54 185.41,355.47 183.22,353.25
             183.22,353.25 170.56,359.50 170.56,359.50
             170.56,359.50 158.61,360.28 158.61,360.28
             158.61,360.28 158.61,353.95 158.61,353.95
             158.61,353.95 155.09,353.95 155.09,353.95
             155.09,353.95 157.20,351.84 157.20,351.84
             157.20,351.84 157.91,349.03 157.91,349.03
             156.89,345.83 154.24,341.64 151.49,339.64
             149.53,338.22 144.74,337.26 143.14,332.15
             143.14,332.15 142.44,334.26 142.44,334.26
             142.44,334.26 138.22,332.15 138.22,332.15
             135.31,337.97 132.19,338.67 134.00,342.00
             134.00,342.00 132.59,344.81 132.59,344.81
             128.43,342.43 126.95,340.14 122.05,342.00
             122.05,342.00 122.05,348.33 122.05,348.33
             122.05,348.33 125.56,348.33 125.56,348.33
             124.70,351.79 125.29,352.32 126.97,355.36
             126.97,355.36 124.16,353.95 124.16,353.95
             124.16,353.95 120.18,358.29 120.18,358.29
             117.24,360.85 114.24,361.23 112.91,365.21
             107.29,364.39 108.66,365.91 105.47,366.48
             105.47,366.48 101.66,366.48 101.66,366.48
             98.59,367.14 94.14,370.72 93.22,373.65
             91.61,374.14 91.91,374.09 91.81,375.76
             91.81,375.76 87.59,373.65 87.59,373.65
             87.59,373.65 86.89,375.76 86.89,375.76
             83.30,369.75 80.63,371.18 74.94,373.65
             74.94,373.65 75.64,367.32 75.64,367.32
             75.64,367.32 70.02,365.91 70.02,365.91
             70.02,365.91 72.83,364.51 72.83,364.51
             70.71,362.77 69.64,362.44 69.31,359.58
             69.31,359.58 65.80,358.88 65.80,358.88
             66.20,350.85 64.26,353.56 62.98,349.73
             62.98,349.73 61.58,349.73 61.58,349.73
             61.58,349.73 62.28,352.55 62.28,352.55
             62.28,352.55 55.95,348.33 55.95,348.33
             55.95,348.33 58.06,344.11 58.06,344.11
             55.17,341.60 55.69,340.92 51.73,340.59
             51.73,340.59 53.84,338.48 53.84,338.48
             53.84,338.48 50.33,330.74 50.33,330.74
             50.33,330.74 48.92,330.74 48.92,330.74
             45.75,332.18 43.77,327.44 42.59,325.11
             42.59,325.11 45.41,327.23 45.41,327.23
             45.41,327.23 48.92,324.41 48.92,324.41
             46.36,325.21 46.12,325.45 44.00,323.71
             44.00,323.71 46.81,324.41 46.81,324.41
             46.81,324.41 42.59,318.08 42.59,318.08
             42.59,318.08 48.22,315.97 48.22,315.97
             47.30,310.82 47.69,312.69 49.63,308.23
             49.63,308.23 46.11,311.75 46.11,311.75
             46.11,311.75 44.00,306.12 44.00,306.12
             44.00,306.12 38.38,304.01 38.38,304.01
             38.38,304.01 38.38,307.53 38.38,307.53
             30.20,303.27 36.68,297.76 32.75,292.76
             36.48,287.41 33.03,288.36 34.86,280.80
             34.86,280.80 37.67,281.50 37.67,281.50
             37.67,281.50 36.27,278.69 36.27,278.69
             36.27,278.69 36.27,277.28 36.27,277.28
             36.27,277.28 37.67,274.47 37.67,274.47
             37.67,274.47 34.86,273.77 34.86,273.77
             34.86,273.77 37.09,266.12 37.09,266.12
             37.09,266.12 41.89,262.51 41.89,262.51
             41.89,262.51 39.08,262.51 39.08,262.51
             39.08,262.51 41.19,254.77 41.19,254.77
             41.19,254.77 44.70,255.48 44.70,255.48
             44.70,255.48 43.30,259.00 43.30,259.00
             43.30,259.00 44.00,259.70 44.00,259.70
             44.00,259.70 48.22,259.70 48.22,259.70
             48.22,259.70 41.89,267.44 41.89,267.44
             45.15,268.32 46.46,269.07 47.52,272.36
             47.52,272.36 44.00,271.66 44.00,271.66
             44.00,271.66 45.06,273.09 45.06,273.09
             45.06,273.09 51.90,277.32 51.90,277.32
             51.90,277.32 55.25,276.58 55.25,276.58
             55.25,276.58 55.25,278.69 55.25,278.69
             55.25,278.69 57.36,279.39 57.36,279.39
             57.36,279.39 55.95,282.21 55.95,282.21
             57.54,283.03 58.17,283.43 59.43,284.76
             61.53,286.96 64.19,292.08 67.91,287.13
             67.91,287.13 68.61,290.65 68.61,290.65
             68.61,290.65 66.50,293.46 66.50,293.46
             69.14,292.27 70.49,291.35 71.42,288.54
             71.42,288.54 69.31,289.24 69.31,289.24
             69.31,289.24 71.42,286.43 71.42,286.43
             71.42,286.43 77.75,286.43 77.75,286.43
             77.75,286.43 79.16,283.61 79.16,283.61
             80.95,284.05 84.16,284.85 85.77,283.61
             88.55,281.44 85.62,276.33 91.81,277.99
             93.46,274.25 95.59,272.54 98.84,270.25
             98.84,270.25 97.44,274.47 97.44,274.47
             100.55,273.59 101.18,272.47 102.36,269.55
             102.36,269.55 112.91,269.55 112.91,269.55
             117.25,265.85 117.12,262.91 117.13,257.59
             120.90,259.62 122.01,260.95 124.16,264.62
             124.16,264.62 126.27,266.73 126.27,266.73
             126.27,266.73 123.45,266.73 123.45,266.73
             123.45,266.73 123.45,269.55 123.45,269.55
             123.45,269.55 129.78,271.66 129.78,271.66
             127.38,273.18 126.52,273.10 125.56,275.88
             125.56,275.88 124.86,274.47 124.86,274.47
             124.86,274.47 124.86,276.58 124.86,276.58
             124.86,276.58 119.94,277.28 119.94,277.28
             120.46,280.97 124.15,285.29 127.67,286.43
             127.67,286.43 126.97,292.06 126.97,292.06
             133.33,292.89 131.73,287.52 137.52,290.65
             137.52,290.65 143.14,280.10 143.14,280.10
             146.47,279.34 147.08,278.60 146.66,275.17
             146.66,275.17 149.47,275.17 149.47,275.17
             146.29,267.06 148.08,271.54 148.46,264.63
             148.57,262.96 148.08,262.00 148.46,260.92
             148.46,260.92 150.88,256.89 150.88,256.89
             150.88,256.89 148.77,254.77 148.77,254.77
             148.77,254.77 146.66,256.18 146.66,256.18
             145.75,254.10 144.93,251.92 142.99,250.56
             140.00,248.46 136.79,248.68 136.11,252.66
             136.11,252.66 134.00,251.96 134.00,251.96
             134.00,251.96 136.11,247.74 136.11,247.74
             131.64,244.72 130.25,241.37 126.27,240.71
             129.67,234.54 128.15,225.84 120.64,223.83
             120.64,223.83 122.05,222.42 122.05,222.42
             122.05,222.42 122.05,221.72 122.05,221.72
             122.05,221.72 111.91,218.68 111.91,218.68
             111.91,218.68 95.97,213.92 95.97,213.92
             95.97,213.92 89.73,210.72 89.73,210.72
             89.73,210.72 84.05,211.63 84.05,211.63
             84.05,211.63 75.64,208.35 75.64,208.35
             75.64,208.35 74.94,211.87 74.94,211.87
             71.58,210.23 63.44,203.36 62.98,211.16
             59.89,208.98 60.64,204.55 62.98,202.02
             62.98,202.02 61.58,200.61 61.58,200.61
             61.58,200.61 65.80,197.10 65.80,197.10
             66.13,194.46 66.54,194.47 68.61,192.88
             68.61,192.88 60.17,192.17 60.17,192.17
             60.17,192.17 59.72,187.25 59.72,187.25
             59.72,187.25 60.17,180.92 60.17,180.92
             60.17,180.92 64.39,180.21 64.39,180.21
             64.39,180.21 62.98,178.81 62.98,178.81
             62.98,178.81 65.80,175.99 65.80,175.99
             65.80,175.99 58.77,175.29 58.77,175.29
             62.18,168.47 59.49,170.18 58.77,163.33
             58.77,163.33 63.69,165.44 63.69,165.44
             63.69,165.44 63.69,158.41 63.69,158.41
             63.69,158.41 65.80,160.52 65.80,160.52
             66.04,158.36 65.37,158.21 63.69,157.00
             63.69,157.00 66.50,155.60 66.50,155.60
             67.65,159.04 69.34,159.83 72.83,159.11
             71.01,155.05 71.61,154.21 74.94,151.38
             74.94,151.38 72.83,145.04 72.83,145.04
             72.83,145.04 76.34,144.34 76.34,144.34
             76.34,144.34 74.23,142.23 74.23,142.23
             76.69,138.37 78.18,139.70 82.67,138.71
             82.67,138.71 80.56,138.01 80.56,138.01
             80.56,138.01 84.08,132.38 84.08,132.38
             84.13,129.44 84.29,128.91 86.89,127.46
             86.89,127.46 86.89,130.27 86.89,130.27
             89.96,131.07 90.36,130.89 93.22,129.57
             93.22,129.57 92.52,127.46 92.52,127.46
             92.52,127.46 98.84,123.24 98.84,123.24
             98.84,123.24 97.44,120.43 97.44,120.43
             100.30,120.52 100.74,120.36 101.66,117.61
             101.66,117.61 105.17,118.32 105.17,118.32
             105.17,118.32 108.69,116.91 108.69,116.91
             108.69,116.91 109.27,115.61 109.27,115.61
             109.27,115.61 119.23,113.57 119.23,113.57
             119.23,113.57 122.75,114.09 122.75,114.09
             122.75,114.09 123.45,111.98 123.45,111.98
             123.45,111.98 126.27,114.09 126.27,114.09
             126.27,114.09 126.97,110.58 126.97,110.58
             126.97,110.58 132.59,114.09 132.59,114.09
             132.59,114.09 138.92,109.17 138.92,109.17
             138.92,109.17 148.06,110.58 148.06,110.58
             148.96,108.62 152.02,110.05 153.69,110.58
             153.69,110.58 156.50,108.47 156.50,108.47
             156.50,108.47 156.50,110.58 156.50,110.58
             156.50,110.58 163.53,109.17 163.53,109.17
             163.53,109.17 162.83,105.65 162.83,105.65
             162.83,105.65 167.75,104.95 167.75,104.95
             167.75,104.95 170.56,103.54 170.56,103.54
             171.25,107.56 172.49,106.13 175.48,107.76
             175.48,107.76 176.89,104.95 176.89,104.95
             176.89,104.95 177.59,107.76 177.59,107.76
             177.59,107.76 180.41,102.84 180.41,102.84
             180.41,102.84 183.22,106.36 183.22,106.36
             183.22,106.36 185.33,104.25 185.33,104.25
             185.33,104.25 197.28,104.95 197.28,104.95
             197.28,104.95 196.58,107.06 196.58,107.06
             196.58,107.06 209.23,107.06 209.23,107.06
             209.23,107.06 209.23,109.87 209.23,109.87
             209.23,109.87 219.08,111.60 219.08,111.60
             219.08,111.60 223.10,112.99 223.10,112.99
             223.10,112.99 227.52,113.89 227.52,113.89
             227.52,113.89 235.95,116.99 235.95,116.99
             235.95,116.99 243.69,118.60 243.69,118.60
             249.83,120.47 256.16,123.27 262.67,121.83
             262.67,121.83 263.38,123.94 263.38,123.94
             266.23,124.51 268.11,126.67 270.38,128.46
             277.77,134.28 282.94,143.64 286.79,152.08
             288.50,155.84 290.85,162.59 294.31,164.74
             294.22,167.60 294.38,168.04 297.13,168.96
             297.13,168.96 295.72,165.44 295.72,165.44
             295.72,165.44 299.23,166.85 299.23,166.85
             299.23,166.85 285.70,141.53 285.70,141.53
             284.47,139.07 281.28,133.57 281.53,130.98
             281.72,129.05 283.96,125.76 284.96,123.94
             284.96,123.94 293.41,109.17 293.41,109.17
             294.61,107.07 296.84,103.85 296.70,101.43
             296.60,99.60 293.50,92.99 292.61,90.88
             292.61,90.88 283.36,69.08 283.36,69.08
             283.36,69.08 275.33,45.16 275.33,45.16
             274.49,42.62 273.02,36.69 271.76,34.82
             270.22,32.56 263.09,27.48 260.56,25.55
             248.68,16.48 249.25,16.79 235.95,9.82
             229.26,6.31 228.37,4.38 220.48,4.36
             220.48,4.36 201.50,4.36 201.50,4.36
             201.50,4.36 221.89,31.80 221.89,31.80
             221.89,31.80 201.50,24.55 201.50,24.55
             201.50,24.55 185.33,16.62 185.33,16.62
             170.73,10.38 155.20,6.88 139.63,4.07
             132.79,2.83 125.47,0.70 118.53,0.85
             118.53,0.85 94.63,3.49 94.63,3.49
             94.63,3.49 79.16,8.58 79.16,8.58 Z
           M 157.91,105.65
           C 157.91,105.65 158.61,106.36 158.61,106.36
             158.61,106.36 157.91,107.76 157.91,107.76
             157.91,107.76 156.50,107.06 156.50,107.06
             156.50,107.06 157.20,105.65 157.20,105.65
             157.20,105.65 157.91,105.65 157.91,105.65 Z
           M 206.42,105.65
           C 206.42,105.65 206.42,106.36 206.42,106.36
             206.42,106.36 205.72,105.65 205.72,105.65
             205.72,105.65 206.42,105.65 206.42,105.65 Z
           M 141.73,108.47
           C 141.73,108.47 141.73,109.17 141.73,109.17
             141.73,109.17 141.03,108.47 141.03,108.47
             141.03,108.47 141.73,108.47 141.73,108.47 Z
           M 246.50,118.32
           C 246.50,118.32 246.50,119.02 246.50,119.02
             246.50,119.02 245.80,118.32 245.80,118.32
             245.80,118.32 246.50,118.32 246.50,118.32 Z
           M 84.78,128.87
           C 84.78,128.87 84.78,129.57 84.78,129.57
             84.78,129.57 85.48,128.87 85.48,128.87
             85.48,128.87 84.78,128.87 84.78,128.87 Z
           M 85.48,131.68
           C 85.48,131.68 85.48,132.38 85.48,132.38
             85.48,132.38 86.19,131.68 86.19,131.68
             86.19,131.68 85.48,131.68 85.48,131.68 Z
           M 83.38,140.82
           C 83.38,140.82 81.27,143.64 81.27,143.64
             81.27,143.64 83.38,140.82 83.38,140.82 Z
           M 68.61,154.89
           C 68.61,154.89 70.02,157.00 70.02,157.00
             70.02,157.00 68.61,154.89 68.61,154.89 Z
           M 73.53,158.41
           C 73.53,158.41 73.53,159.11 73.53,159.11
             73.53,159.11 74.23,158.41 74.23,158.41
             74.23,158.41 73.53,158.41 73.53,158.41 Z
           M 62.28,161.93
           C 62.28,161.93 62.28,162.63 62.28,162.63
             62.28,162.63 61.58,161.93 61.58,161.93
             61.58,161.93 62.28,161.93 62.28,161.93 Z
           M 70.72,161.22
           C 70.72,161.22 70.72,161.93 70.72,161.93
             70.72,161.93 71.42,161.22 71.42,161.22
             71.42,161.22 70.72,161.22 70.72,161.22 Z
           M 77.75,161.22
           C 77.75,161.22 77.05,165.44 77.05,165.44
             78.37,163.64 78.51,163.35 77.75,161.22 Z
           M 75.64,161.93
           C 75.64,161.93 75.64,162.63 75.64,162.63
             75.64,162.63 76.34,161.93 76.34,161.93
             76.34,161.93 75.64,161.93 75.64,161.93 Z
           M 86.89,164.74
           C 86.89,164.74 86.89,165.44 86.89,165.44
             86.89,165.44 87.59,164.74 87.59,164.74
             87.59,164.74 86.89,164.74 86.89,164.74 Z
           M 64.39,165.44
           C 64.39,165.44 62.98,169.66 62.98,169.66
             62.98,169.66 66.50,167.55 66.50,167.55
             66.50,167.55 66.50,166.15 66.50,166.15
             66.50,166.15 65.80,165.44 65.80,165.44
             65.80,165.44 64.39,165.44 64.39,165.44 Z
           M 298.53,167.55
           C 298.53,167.55 295.72,170.37 295.72,170.37
             296.74,175.01 295.17,174.55 298.53,178.10
             298.53,178.10 302.05,177.40 302.05,177.40
             302.05,177.40 302.75,182.32 302.75,182.32
             303.92,178.20 301.47,170.60 298.53,167.55 Z
           M 68.61,170.37
           C 68.61,170.37 67.91,175.99 67.91,175.99
             67.91,175.99 74.23,175.29 74.23,175.29
             74.23,175.29 74.23,173.18 74.23,173.18
             74.23,173.18 71.42,173.88 71.42,173.88
             71.42,173.88 72.13,171.07 72.13,171.07
             72.13,171.07 68.61,170.37 68.61,170.37 Z
           M 89.00,171.07
           C 89.00,171.07 89.00,171.77 89.00,171.77
             89.00,171.77 89.70,171.07 89.70,171.07
             89.70,171.07 89.00,171.07 89.00,171.07 Z
           M 53.84,173.18
           C 53.84,173.18 53.84,173.88 53.84,173.88
             53.84,173.88 53.14,173.18 53.14,173.18
             53.14,173.18 53.84,173.18 53.84,173.18 Z
           M 57.36,175.99
           C 57.36,175.99 54.55,173.88 54.55,173.88
             56.68,174.02 56.61,173.98 57.36,175.99 Z
           M 299.23,173.88
           C 299.23,173.88 299.23,174.59 299.23,174.59
             299.23,174.59 298.53,173.88 298.53,173.88
             298.53,173.88 299.23,173.88 299.23,173.88 Z
           M 299.94,175.29
           C 299.94,175.29 299.94,175.99 299.94,175.99
             299.94,175.99 299.23,175.29 299.23,175.29
             299.23,175.29 299.94,175.29 299.94,175.29 Z
           M 302.75,183.03
           C 302.75,183.03 303.45,185.84 303.45,185.84
             303.45,185.84 302.75,183.03 302.75,183.03 Z
           M 67.91,184.43
           C 67.91,184.43 67.91,185.14 67.91,185.14
             67.91,185.14 68.61,184.43 68.61,184.43
             68.61,184.43 67.91,184.43 67.91,184.43 Z
           M 64.39,187.95
           C 64.39,187.95 67.91,186.55 67.91,186.55
             65.80,185.92 65.57,186.17 64.39,187.95 Z
           M 57.36,190.77
           C 57.36,190.77 57.36,191.47 57.36,191.47
             57.36,191.47 56.66,190.77 56.66,190.77
             56.66,190.77 57.36,190.77 57.36,190.77 Z
           M 71.42,190.77
           C 71.42,190.77 71.42,191.47 71.42,191.47
             71.42,191.47 72.13,190.77 72.13,190.77
             72.13,190.77 71.42,190.77 71.42,190.77 Z
           M 55.95,192.17
           C 55.95,192.17 55.95,192.88 55.95,192.88
             55.95,192.88 55.25,192.17 55.25,192.17
             55.25,192.17 55.95,192.17 55.95,192.17 Z
           M 55.25,192.88
           C 54.86,194.89 55.05,194.89 53.14,195.69
             53.14,195.69 55.25,192.88 55.25,192.88 Z
           M 68.61,194.99
           C 71.65,202.54 71.76,201.52 78.45,201.32
             78.45,201.32 79.16,198.50 79.16,198.50
             73.97,201.07 75.14,195.53 68.61,194.99 Z
           M 305.56,195.69
           C 305.56,195.69 305.56,196.39 305.56,196.39
             305.56,196.39 306.27,195.69 306.27,195.69
             306.27,195.69 305.56,195.69 305.56,195.69 Z
           M 266.19,197.80
           C 266.19,197.80 266.19,198.50 266.19,198.50
             266.19,198.50 266.89,197.80 266.89,197.80
             266.89,197.80 266.19,197.80 266.19,197.80 Z
           M 305.56,197.80
           C 305.56,197.80 305.56,198.50 305.56,198.50
             305.56,198.50 306.27,197.80 306.27,197.80
             306.27,197.80 305.56,197.80 305.56,197.80 Z
           M 58.06,199.91
           C 60.09,202.30 60.18,203.22 59.47,206.24
             58.03,203.92 57.06,202.61 58.06,199.91 Z
           M 226.81,199.21
           C 223.91,201.79 223.04,202.24 223.30,206.24
             223.30,206.24 228.22,202.02 228.22,202.02
             228.22,202.02 227.52,204.83 227.52,204.83
             227.52,204.83 231.73,204.13 231.73,204.13
             231.73,204.13 226.81,199.21 226.81,199.21 Z
           M 74.23,200.61
           C 74.23,200.61 74.23,201.32 74.23,201.32
             74.23,201.32 73.53,200.61 73.53,200.61
             73.53,200.61 74.23,200.61 74.23,200.61 Z
           M 306.27,202.72
           C 306.27,202.72 306.97,208.35 306.97,208.35
             307.93,205.90 307.83,204.85 306.27,202.72 Z
           M 214.16,206.24
           C 214.16,206.24 216.97,205.54 216.97,205.54
             215.28,204.69 215.36,204.84 214.16,206.24 Z
           M 75.64,206.24
           C 75.64,206.24 75.64,206.94 75.64,206.94
             75.64,206.94 76.34,206.24 76.34,206.24
             76.34,206.24 75.64,206.24 75.64,206.24 Z
           M 223.30,206.94
           C 223.30,206.94 223.30,207.65 223.30,207.65
             223.30,207.65 224.00,206.94 224.00,206.94
             224.00,206.94 223.30,206.94 223.30,206.94 Z
           M 59.47,208.35
           C 59.47,208.35 59.47,209.05 59.47,209.05
             59.47,209.05 58.77,208.35 58.77,208.35
             58.77,208.35 59.47,208.35 59.47,208.35 Z
           M 210.64,209.05
           C 210.64,209.05 213.45,208.35 213.45,208.35
             211.81,207.82 211.79,207.77 210.64,209.05 Z
           M 60.17,209.05
           C 60.17,209.05 60.17,209.76 60.17,209.76
             60.17,209.76 59.47,209.05 59.47,209.05
             59.47,209.05 60.17,209.05 60.17,209.05 Z
           M 60.17,212.57
           C 60.17,212.57 55.95,213.27 55.95,213.27
             55.95,213.27 55.95,211.87 55.95,211.87
             55.95,211.87 60.17,212.57 60.17,212.57 Z
           M 62.28,213.98
           C 62.28,213.98 62.28,214.68 62.28,214.68
             62.28,214.68 61.58,213.98 61.58,213.98
             61.58,213.98 62.28,213.98 62.28,213.98 Z
           M 307.67,216.09
           C 307.67,216.09 307.67,219.60 307.67,219.60
             307.67,219.60 307.67,216.09 307.67,216.09 Z
           M 62.28,218.90
           C 62.28,218.90 62.28,219.60 62.28,219.60
             62.28,219.60 61.58,218.90 61.58,218.90
             61.58,218.90 62.28,218.90 62.28,218.90 Z
           M 26.42,221.72
           C 26.42,221.72 26.42,222.42 26.42,222.42
             26.42,222.42 27.13,221.72 27.13,221.72
             27.13,221.72 26.42,221.72 26.42,221.72 Z
           M 44.70,224.53
           C 44.70,224.53 41.19,223.12 41.19,223.12
             43.43,222.78 43.30,222.74 44.70,224.53 Z
           M 226.81,227.34
           C 226.81,227.34 226.81,228.05 226.81,228.05
             226.81,228.05 228.22,228.05 228.22,228.05
             224.01,229.15 223.36,227.79 216.97,229.34
             213.25,230.25 209.76,231.89 206.42,233.74
             205.31,234.36 203.55,235.28 203.15,236.58
             202.28,239.36 206.51,239.73 208.12,240.32
             209.82,240.95 210.77,241.77 212.75,241.84
             212.75,241.84 224.00,239.55 224.00,239.55
             224.00,239.55 233.08,237.27 233.08,237.27
             233.08,237.27 238.09,236.83 238.09,236.83
             242.57,235.85 245.30,235.19 250.02,235.08
             251.53,238.96 255.11,237.97 256.34,234.38
             256.34,234.38 251.42,234.38 251.42,234.38
             251.18,231.36 251.08,230.75 247.91,230.86
             247.91,230.86 247.20,228.75 247.20,228.75
             247.20,228.75 245.09,229.45 245.09,229.45
             241.12,224.24 232.35,227.29 226.81,227.34 Z
           M 247.91,228.05
           C 247.91,228.05 247.91,228.75 247.91,228.75
             247.91,228.75 248.61,228.05 248.61,228.05
             248.61,228.05 247.91,228.05 247.91,228.05 Z
           M 250.72,228.75
           C 250.72,228.75 250.72,229.45 250.72,229.45
             250.72,229.45 251.42,228.75 251.42,228.75
             251.42,228.75 250.72,228.75 250.72,228.75 Z
           M 258.45,230.16
           C 258.45,230.16 258.45,230.86 258.45,230.86
             258.45,230.86 259.16,230.16 259.16,230.16
             259.16,230.16 258.45,230.16 258.45,230.16 Z
           M 44.70,231.56
           C 44.70,231.56 44.70,232.27 44.70,232.27
             44.70,232.27 44.00,231.56 44.00,231.56
             44.00,231.56 44.70,231.56 44.70,231.56 Z
           M 44.00,232.97
           C 43.91,235.71 44.15,236.20 41.89,237.89
             41.89,237.89 44.00,240.00 44.00,240.00
             44.00,240.00 39.08,240.00 39.08,240.00
             39.08,240.00 41.19,238.60 41.19,238.60
             39.69,235.61 39.83,235.28 41.19,232.27
             41.19,232.27 44.00,232.97 44.00,232.97 Z
           M 307.67,231.56
           C 307.67,231.56 307.67,232.27 307.67,232.27
             307.67,232.27 308.38,231.56 308.38,231.56
             308.38,231.56 307.67,231.56 307.67,231.56 Z
           M 102.36,234.38
           C 102.36,234.38 101.66,236.49 101.66,236.49
             101.66,236.49 110.54,238.68 110.54,238.68
             110.54,238.68 111.50,237.89 111.50,237.89
             113.60,239.15 113.80,239.00 114.31,241.41
             118.00,241.52 118.40,240.01 120.64,243.52
             120.64,243.52 125.56,240.71 125.56,240.71
             127.04,245.34 126.09,245.35 125.56,249.85
             122.33,248.19 118.67,245.72 115.02,245.63
             115.02,245.63 106.58,246.31 106.58,246.31
             106.58,246.31 94.43,244.86 94.43,244.86
             94.43,244.86 86.19,244.86 86.19,244.86
             86.19,244.86 86.89,246.33 86.89,246.33
             86.89,246.33 77.05,245.63 77.05,245.63
             77.05,245.63 77.05,242.11 77.05,242.11
             77.05,242.11 79.16,242.82 79.16,242.82
             79.16,242.82 80.56,234.38 80.56,234.38
             80.56,234.38 91.93,233.16 91.93,233.16
             91.93,233.16 96.73,233.74 96.73,233.74
             96.73,233.74 102.36,234.38 102.36,234.38 Z
           M 77.05,236.49
           C 77.05,236.49 76.34,241.41 76.34,241.41
             76.34,241.41 77.05,236.49 77.05,236.49 Z
           M 82.67,235.78
           C 82.67,235.78 82.67,236.49 82.67,236.49
             82.67,236.49 83.38,235.78 83.38,235.78
             83.38,235.78 82.67,235.78 82.67,235.78 Z
           M 262.67,235.78
           C 262.67,235.78 262.67,236.49 262.67,236.49
             262.67,236.49 263.38,235.78 263.38,235.78
             263.38,235.78 262.67,235.78 262.67,235.78 Z
           M 306.97,236.49
           C 306.97,236.49 306.97,237.19 306.97,237.19
             306.97,237.19 307.67,236.49 307.67,236.49
             307.67,236.49 306.97,236.49 306.97,236.49 Z
           M 39.08,238.60
           C 39.08,238.60 39.08,239.30 39.08,239.30
             39.08,239.30 38.38,238.60 38.38,238.60
             38.38,238.60 39.08,238.60 39.08,238.60 Z
           M 306.27,242.11
           C 306.27,242.11 306.27,242.82 306.27,242.82
             306.27,242.82 306.97,242.11 306.97,242.11
             306.97,242.11 306.27,242.11 306.27,242.11 Z
           M 41.89,246.33
           C 41.89,246.33 42.59,244.93 42.59,244.93
             42.59,244.93 43.30,244.93 43.30,244.93
             43.30,244.93 46.81,247.74 46.81,247.74
             46.81,247.74 45.41,252.66 45.41,252.66
             45.41,252.66 41.19,250.55 41.19,250.55
             41.19,250.55 41.19,254.07 41.19,254.07
             41.19,254.07 38.38,255.48 38.38,255.48
             38.38,255.48 37.67,251.96 37.67,251.96
             39.97,251.15 39.23,247.29 39.78,244.93
             39.78,244.93 41.89,246.33 41.89,246.33 Z
           M 48.92,246.33
           C 48.92,246.33 48.92,247.04 48.92,247.04
             48.92,247.04 48.22,246.33 48.22,246.33
             48.22,246.33 48.92,246.33 48.92,246.33 Z
           M 131.19,247.04
           C 131.19,247.04 133.30,250.55 133.30,250.55
             133.30,250.55 132.59,251.26 132.59,251.26
             132.59,251.26 129.08,249.15 129.08,249.15
             129.08,249.15 129.08,247.74 129.08,247.74
             129.08,247.74 129.78,247.04 129.78,247.04
             129.78,247.04 131.19,247.04 131.19,247.04 Z
           M 305.56,247.04
           C 305.56,247.04 305.56,247.74 305.56,247.74
             305.56,247.74 306.27,247.04 306.27,247.04
             306.27,247.04 305.56,247.04 305.56,247.04 Z
           M 142.44,248.44
           C 142.44,248.44 142.44,249.15 142.44,249.15
             142.44,249.15 143.14,248.44 143.14,248.44
             143.14,248.44 142.44,248.44 142.44,248.44 Z
           M 129.08,249.85
           C 129.08,249.85 129.08,250.55 129.08,250.55
             129.08,250.55 128.38,249.85 128.38,249.85
             128.38,249.85 129.08,249.85 129.08,249.85 Z
           M 200.80,262.51
           C 200.80,262.51 204.31,261.81 204.31,261.81
             204.31,261.81 204.31,258.29 204.31,258.29
             204.31,258.29 208.53,260.40 208.53,260.40
             208.53,260.40 205.02,261.81 205.02,261.81
             205.02,261.81 205.72,264.62 205.72,264.62
             205.72,264.62 204.31,264.62 204.31,264.62
             204.31,264.62 204.31,266.03 204.31,266.03
             204.31,266.03 211.34,270.25 211.34,270.25
             211.34,270.25 211.34,264.62 211.34,264.62
             211.34,264.62 209.23,265.33 209.23,265.33
             211.49,264.07 212.43,264.83 214.86,265.33
             214.86,265.33 214.16,260.40 214.16,260.40
             214.16,260.40 216.27,261.11 216.27,261.11
             215.65,264.07 215.84,264.40 218.38,266.03
             218.28,267.29 218.00,268.03 218.92,269.15
             220.70,271.30 230.16,272.32 233.08,272.28
             235.52,272.08 235.75,270.99 238.06,272.28
             245.09,270.06 244.39,266.13 244.39,259.70
             254.62,262.69 252.06,268.99 261.27,270.25
             260.32,261.34 251.92,259.45 246.50,254.07
             246.50,254.07 250.02,254.07 250.02,254.07
             250.02,254.07 258.33,260.13 258.33,260.13
             258.33,260.13 265.48,268.14 265.48,268.14
             263.80,261.44 256.99,255.60 250.72,253.00
             248.24,251.97 245.58,251.57 242.98,250.93
             237.81,249.63 237.40,249.05 231.74,249.16
             231.74,249.16 222.59,249.16 222.59,249.16
             213.50,249.37 203.64,253.00 200.80,262.51 Z
           M 29.23,249.85
           C 29.23,249.85 29.23,250.55 29.23,250.55
             29.23,250.55 29.94,249.85 29.94,249.85
             29.94,249.85 29.23,249.85 29.23,249.85 Z
           M 129.78,250.55
           C 129.78,250.55 129.78,251.26 129.78,251.26
             129.78,251.26 129.08,250.55 129.08,250.55
             129.08,250.55 129.78,250.55 129.78,250.55 Z
           M 304.86,251.96
           C 304.86,251.96 304.86,252.66 304.86,252.66
             304.86,252.66 305.56,251.96 305.56,251.96
             305.56,251.96 304.86,251.96 304.86,251.96 Z
           M 122.05,254.07
           C 122.05,254.07 122.05,254.77 122.05,254.77
             122.05,254.77 121.34,254.07 121.34,254.07
             121.34,254.07 122.05,254.07 122.05,254.07 Z
           M 147.36,253.37
           C 147.36,253.37 147.36,254.07 147.36,254.07
             147.36,254.07 148.06,253.37 148.06,253.37
             148.06,253.37 147.36,253.37 147.36,253.37 Z
           M 169.16,254.77
           C 169.16,254.77 168.47,255.48 168.47,255.48
             168.47,255.48 168.47,266.73 168.47,266.73
             168.47,266.73 167.97,271.66 167.97,271.66
             167.97,271.66 169.11,275.88 169.11,275.88
             169.11,275.88 171.27,282.91 171.27,282.91
             171.27,282.91 169.16,288.54 169.16,288.54
             169.16,288.54 171.27,286.43 171.27,286.43
             174.87,290.75 173.85,291.75 174.08,296.98
             178.30,298.27 178.96,303.78 179.00,307.53
             179.00,307.53 179.70,304.72 179.70,304.72
             182.92,307.87 180.95,307.33 180.41,313.16
             180.41,313.16 181.11,311.05 181.11,311.05
             181.11,311.05 186.03,313.16 186.03,313.16
             186.03,313.16 185.33,305.42 185.33,305.42
             185.33,305.42 187.44,310.34 187.44,310.34
             187.44,310.34 188.14,308.23 188.14,308.23
             188.14,308.23 188.84,312.45 188.84,312.45
             188.84,312.45 191.66,313.16 191.66,313.16
             191.92,317.36 194.14,315.97 196.75,317.60
             197.50,318.06 201.65,322.98 201.89,323.77
             202.15,324.66 201.73,325.66 201.50,326.52
             201.50,326.52 207.13,330.74 207.13,330.74
             207.13,330.74 210.64,330.74 210.64,330.74
             210.64,330.74 208.53,328.63 208.53,328.63
             208.53,328.63 211.34,329.34 211.34,329.34
             211.34,329.34 212.05,328.63 212.05,328.63
             212.05,328.63 212.05,327.23 212.05,327.23
             212.05,327.23 209.94,325.82 209.94,325.82
             209.94,325.82 212.05,325.11 212.05,325.11
             212.90,327.77 213.25,327.84 211.34,330.04
             211.34,330.04 212.05,332.15 212.05,332.15
             212.05,332.15 214.86,331.45 214.86,331.45
             214.86,331.45 214.16,327.93 214.16,327.93
             214.16,327.93 218.38,327.93 218.38,327.93
             218.38,327.93 216.97,323.00 216.97,323.00
             216.97,323.00 213.45,321.60 213.45,321.60
             213.45,321.60 209.23,322.30 209.23,322.30
             209.23,322.30 212.05,318.78 212.05,318.78
             212.05,318.78 211.34,315.97 211.34,315.97
             205.40,318.95 204.26,316.70 197.98,316.67
             197.98,316.67 198.69,313.86 198.69,313.86
             198.69,313.86 201.50,314.56 201.50,314.56
             199.86,310.13 199.07,312.03 196.52,311.74
             195.39,311.62 194.12,310.81 193.06,310.34
             197.46,305.49 199.01,311.03 202.20,307.53
             202.20,307.53 205.02,307.53 205.02,307.53
             201.71,302.14 203.44,303.89 202.20,298.32
             202.20,298.32 197.34,298.32 197.34,298.32
             197.34,298.32 193.03,300.50 193.03,300.50
             193.03,300.50 186.03,301.20 186.03,301.20
             187.11,297.66 188.08,297.27 191.66,296.98
             191.66,296.98 190.25,293.46 190.25,293.46
             190.25,293.46 188.84,291.35 188.84,291.35
             188.84,291.35 187.44,292.76 187.44,292.76
             186.66,290.16 186.88,290.19 188.14,287.83
             188.14,287.83 185.33,288.54 185.33,288.54
             185.33,288.54 182.52,287.83 182.52,287.83
             182.52,287.83 182.52,285.02 182.52,285.02
             182.52,285.02 185.33,285.02 185.33,285.02
             185.33,285.02 182.33,275.47 182.33,275.47
             181.79,274.36 180.66,273.58 180.40,272.33
             180.06,270.68 181.27,269.88 181.22,267.41
             181.14,263.30 178.52,259.37 176.19,256.18
             176.19,256.18 169.16,254.77 169.16,254.77 Z
           M 307.67,254.77
           C 307.67,254.77 307.67,255.48 307.67,255.48
             307.67,255.48 308.38,254.77 308.38,254.77
             308.38,254.77 307.67,254.77 307.67,254.77 Z
           M 111.50,256.18
           C 111.50,256.18 109.39,257.59 109.39,257.59
             109.39,257.59 110.09,261.81 110.09,261.81
             110.09,261.81 112.20,256.89 112.20,256.89
             112.20,256.89 111.50,263.92 111.50,263.92
             111.50,263.92 108.69,263.92 108.69,263.92
             108.69,260.45 107.75,257.50 111.50,256.18 Z
           M 171.97,256.89
           C 171.97,256.89 171.97,257.59 171.97,257.59
             171.97,257.59 171.27,256.89 171.27,256.89
             171.27,256.89 171.97,256.89 171.97,256.89 Z
           M 311.19,266.73
           C 311.19,266.73 307.67,264.62 307.67,264.62
             307.67,264.62 304.86,268.14 304.86,268.14
             304.86,268.14 305.39,270.25 305.39,270.25
             301.93,273.32 302.38,282.24 305.39,285.35
             307.14,287.47 311.21,288.70 313.79,290.80
             316.83,293.28 316.43,295.00 320.33,296.98
             320.33,296.98 320.33,297.68 320.33,297.68
             320.33,297.68 318.92,299.09 318.92,299.09
             318.92,299.09 320.33,303.31 320.33,303.31
             324.46,300.44 323.98,291.15 318.92,289.24
             318.92,289.24 319.63,282.21 319.63,282.21
             319.63,282.21 316.81,280.80 316.81,280.80
             316.81,280.80 318.92,281.50 318.92,281.50
             319.34,279.59 319.51,278.47 319.42,276.50
             319.25,272.44 310.10,260.42 318.94,258.30
             319.83,258.09 320.83,258.24 321.73,258.30
             320.50,255.32 317.96,256.22 315.82,257.91
             312.23,260.72 311.53,262.35 311.19,266.73 Z
           M 26.42,257.59
           C 26.42,257.59 26.42,258.29 26.42,258.29
             26.42,258.29 27.13,257.59 27.13,257.59
             27.13,257.59 26.42,257.59 26.42,257.59 Z
           M 237.36,267.44
           C 235.89,265.73 234.29,260.60 236.93,259.11
             239.91,257.43 238.76,262.90 238.50,263.92
             238.50,263.92 237.36,267.44 237.36,267.44 Z
           M 15.17,259.70
           C 15.17,259.70 15.88,263.22 15.88,263.22
             15.88,263.22 12.36,265.33 12.36,265.33
             12.36,265.33 12.36,266.03 12.36,266.03
             12.36,266.03 13.77,267.44 13.77,267.44
             13.77,267.44 19.66,265.31 19.66,265.31
             21.17,264.00 20.78,260.16 15.17,259.70 Z
           M 321.73,259.70
           C 321.73,259.70 321.73,260.40 321.73,260.40
             321.73,260.40 322.44,259.70 322.44,259.70
             322.44,259.70 321.73,259.70 321.73,259.70 Z
           M 10.25,261.81
           C 10.25,261.81 10.25,265.33 10.25,265.33
             10.25,265.33 10.25,261.81 10.25,261.81 Z
           M 9.55,266.03
           C 9.55,266.03 9.55,266.73 9.55,266.73
             9.55,266.73 10.25,266.03 10.25,266.03
             10.25,266.03 9.55,266.03 9.55,266.03 Z
           M 247.91,268.84
           C 247.91,268.84 251.42,268.84 251.42,268.84
             251.42,268.84 251.42,266.03 251.42,266.03
             251.42,266.03 247.91,268.84 247.91,268.84 Z
           M 11.66,266.73
           C 11.66,266.73 11.66,267.44 11.66,267.44
             11.66,267.44 12.36,266.73 12.36,266.73
             12.36,266.73 11.66,266.73 11.66,266.73 Z
           M 16.58,268.14
           C 16.58,268.14 10.95,276.58 10.95,276.58
             10.95,276.58 11.66,278.69 11.66,278.69
             11.66,278.69 13.06,278.69 13.06,278.69
             14.90,276.33 15.10,276.03 17.98,275.17
             18.67,271.79 19.32,271.52 17.98,268.14
             17.98,268.14 16.58,268.14 16.58,268.14 Z
           M 200.09,268.84
           C 200.09,268.84 202.91,270.25 202.91,270.25
             202.91,270.25 200.09,268.84 200.09,268.84 Z
           M 8.84,269.55
           C 8.84,269.55 8.84,270.25 8.84,270.25
             8.84,270.25 9.55,269.55 9.55,269.55
             9.55,269.55 8.84,269.55 8.84,269.55 Z
           M 322.44,269.55
           C 322.44,269.55 321.73,285.72 321.73,285.72
             321.73,285.72 322.44,285.72 322.44,285.72
             322.44,285.72 323.24,287.13 323.24,287.13
             323.74,285.04 323.21,283.65 323.24,281.53
             323.60,276.69 325.63,274.39 322.44,269.55 Z
           M 41.89,273.06
           C 41.89,273.06 41.19,275.88 41.19,275.88
             41.19,275.88 44.00,275.17 44.00,275.17
             44.00,275.17 44.00,273.77 44.00,273.77
             44.00,273.77 41.89,273.06 41.89,273.06 Z
           M 8.14,273.77
           C 8.14,273.77 8.14,274.47 8.14,274.47
             8.14,274.47 8.84,273.77 8.84,273.77
             8.84,273.77 8.14,273.77 8.14,273.77 Z
           M 85.48,275.17
           C 85.48,275.17 85.48,275.88 85.48,275.88
             85.48,275.88 84.78,275.17 84.78,275.17
             84.78,275.17 85.48,275.17 85.48,275.17 Z
           M 172.67,275.17
           C 172.67,275.17 170.56,277.28 170.56,277.28
             170.56,277.28 171.27,275.17 171.27,275.17
             171.27,275.17 172.67,275.17 172.67,275.17 Z
           M 29.23,277.28
           C 29.23,277.28 29.23,277.99 29.23,277.99
             29.23,277.99 29.94,277.28 29.94,277.28
             29.94,277.28 29.23,277.28 29.23,277.28 Z
           M 47.52,277.28
           C 47.52,277.28 47.52,277.99 47.52,277.99
             47.52,277.99 48.22,277.28 48.22,277.28
             48.22,277.28 47.52,277.28 47.52,277.28 Z
           M 112.20,282.21
           C 112.20,282.21 115.72,282.91 115.72,282.91
             115.72,282.91 116.42,277.99 116.42,277.99
             113.17,278.17 113.26,279.40 112.20,282.21 Z
           M 122.75,277.99
           C 122.75,277.99 122.75,278.69 122.75,278.69
             122.75,278.69 122.05,277.99 122.05,277.99
             122.05,277.99 122.75,277.99 122.75,277.99 Z
           M 7.44,277.99
           C 7.44,277.99 7.44,278.69 7.44,278.69
             7.44,278.69 8.14,277.99 8.14,277.99
             8.14,277.99 7.44,277.99 7.44,277.99 Z
           M 123.45,278.69
           C 123.45,278.69 123.45,279.39 123.45,279.39
             123.45,279.39 122.75,278.69 122.75,278.69
             122.75,278.69 123.45,278.69 123.45,278.69 Z
           M 175.48,278.69
           C 175.48,278.69 175.48,279.39 175.48,279.39
             175.48,279.39 174.78,278.69 174.78,278.69
             174.78,278.69 175.48,278.69 175.48,278.69 Z
           M 176.89,278.69
           C 176.89,278.69 176.89,279.39 176.89,279.39
             176.89,279.39 176.19,278.69 176.19,278.69
             176.19,278.69 176.89,278.69 176.89,278.69 Z
           M 13.06,279.39
           C 13.06,279.39 13.06,280.10 13.06,280.10
             13.06,280.10 13.77,279.39 13.77,279.39
             13.77,279.39 13.06,279.39 13.06,279.39 Z
           M 308.38,280.10
           C 308.38,280.10 308.38,280.80 308.38,280.80
             308.38,280.80 307.67,280.10 307.67,280.10
             307.67,280.10 308.38,280.10 308.38,280.10 Z
           M 13.06,280.80
           C 13.06,280.80 13.06,283.61 13.06,283.61
             11.04,284.00 11.04,283.82 10.25,285.72
             10.25,285.72 14.47,284.32 14.47,284.32
             14.47,284.32 14.47,280.80 14.47,280.80
             14.47,280.80 13.06,280.80 13.06,280.80 Z
           M 68.61,282.91
           C 67.53,285.62 67.08,285.52 64.39,286.43
             64.39,286.43 64.39,282.21 64.39,282.21
             64.39,282.21 68.61,282.91 68.61,282.91 Z
           M 126.27,282.21
           C 126.27,282.21 126.27,282.91 126.27,282.91
             126.27,282.91 125.56,282.21 125.56,282.21
             125.56,282.21 126.27,282.21 126.27,282.21 Z
           M 307.67,282.21
           C 307.67,282.21 307.67,282.91 307.67,282.91
             307.67,282.91 306.97,282.21 306.97,282.21
             306.97,282.21 307.67,282.21 307.67,282.21 Z
           M 6.73,282.91
           C 6.73,282.91 6.73,283.61 6.73,283.61
             6.73,283.61 7.44,282.91 7.44,282.91
             7.44,282.91 6.73,282.91 6.73,282.91 Z
           M 39.78,283.61
           C 40.22,286.27 40.39,286.31 42.59,287.83
             42.14,285.15 42.07,285.08 39.78,283.61 Z
           M 77.05,284.32
           C 77.05,284.32 77.05,285.02 77.05,285.02
             77.05,285.02 76.34,284.32 76.34,284.32
             76.34,284.32 77.05,284.32 77.05,284.32 Z
           M 89.70,283.61
           C 89.70,283.61 90.41,285.72 90.41,285.72
             90.41,285.72 91.81,285.72 91.81,285.72
             91.81,285.72 92.52,283.61 92.52,283.61
             92.52,283.61 89.70,283.61 89.70,283.61 Z
           M 130.48,284.32
           C 130.48,284.32 130.48,285.02 130.48,285.02
             130.48,285.02 129.78,284.32 129.78,284.32
             129.78,284.32 130.48,284.32 130.48,284.32 Z
           M 37.67,284.32
           C 37.67,284.32 37.67,285.02 37.67,285.02
             37.67,285.02 38.38,284.32 38.38,284.32
             38.38,284.32 37.67,284.32 37.67,284.32 Z
           M 62.28,285.02
           C 62.28,285.02 62.28,285.72 62.28,285.72
             62.28,285.72 61.58,285.02 61.58,285.02
             61.58,285.02 62.28,285.02 62.28,285.02 Z
           M 55.95,287.83
           C 55.95,287.83 55.95,288.54 55.95,288.54
             55.95,288.54 56.66,287.83 56.66,287.83
             56.66,287.83 55.95,287.83 55.95,287.83 Z
           M 321.73,289.24
           C 321.73,289.24 321.73,289.94 321.73,289.94
             321.73,289.94 322.44,289.24 322.44,289.24
             322.44,289.24 321.73,289.24 321.73,289.24 Z
           M 7.44,292.06
           C 7.44,292.06 7.44,292.76 7.44,292.76
             7.44,292.76 8.14,292.06 8.14,292.06
             8.14,292.06 7.44,292.06 7.44,292.06 Z
           M 5.33,293.46
           C 5.33,293.46 5.33,294.17 5.33,294.17
             5.33,294.17 6.03,293.46 6.03,293.46
             6.03,293.46 5.33,293.46 5.33,293.46 Z
           M 10.25,294.17
           C 10.25,294.17 10.25,298.39 10.25,298.39
             10.25,298.39 13.77,296.98 13.77,296.98
             13.77,296.98 13.06,294.17 13.06,294.17
             13.06,294.17 10.25,294.17 10.25,294.17 Z
           M 136.11,294.17
           C 136.11,294.17 136.11,294.87 136.11,294.87
             136.11,294.87 136.81,294.17 136.81,294.17
             136.81,294.17 136.11,294.17 136.11,294.17 Z
           M 324.55,294.87
           C 324.55,294.87 325.95,297.68 325.95,297.68
             325.95,297.68 324.55,294.87 324.55,294.87 Z
           M 5.33,297.68
           C 5.33,297.68 5.33,298.39 5.33,298.39
             5.33,298.39 6.03,297.68 6.03,297.68
             6.03,297.68 5.33,297.68 5.33,297.68 Z
           M 198.69,299.09
           C 198.69,299.09 201.50,301.20 201.50,301.20
             201.50,301.20 200.80,304.72 200.80,304.72
             198.01,303.95 196.75,303.73 195.17,301.20
             195.17,301.20 198.69,299.09 198.69,299.09 Z
           M 193.06,299.09
           C 193.06,299.09 193.06,299.79 193.06,299.79
             193.06,299.79 193.77,299.09 193.77,299.09
             193.77,299.09 193.06,299.09 193.06,299.09 Z
           M 8.84,299.79
           C 8.84,299.79 8.84,300.50 8.84,300.50
             8.84,300.50 9.55,299.79 9.55,299.79
             9.55,299.79 8.84,299.79 8.84,299.79 Z
           M 55.95,301.90
           C 55.95,301.90 55.95,302.61 55.95,302.61
             55.95,302.61 56.66,301.90 56.66,301.90
             56.66,301.90 55.95,301.90 55.95,301.90 Z
           M 185.33,303.31
           C 185.33,303.31 185.33,304.01 185.33,304.01
             185.33,304.01 184.63,303.31 184.63,303.31
             184.63,303.31 185.33,303.31 185.33,303.31 Z
           M 184.63,304.01
           C 184.63,304.01 184.63,304.72 184.63,304.72
             184.63,304.72 183.92,304.01 183.92,304.01
             183.92,304.01 184.63,304.01 184.63,304.01 Z
           M 325.25,303.31
           C 325.25,303.31 325.25,304.01 325.25,304.01
             325.25,304.01 325.95,303.31 325.95,303.31
             325.95,303.31 325.25,303.31 325.25,303.31 Z
           M 6.73,304.01
           C 6.73,304.01 6.73,306.83 6.73,306.83
             8.12,305.59 8.12,305.25 6.73,304.01 Z
           M 36.27,304.01
           C 36.27,304.01 36.27,304.72 36.27,304.72
             36.27,304.72 36.97,304.01 36.97,304.01
             36.97,304.01 36.27,304.01 36.27,304.01 Z
           M 193.06,304.72
           C 193.06,304.72 193.06,308.23 193.06,308.23
             190.72,307.29 190.68,307.20 190.25,304.72
             190.25,304.72 193.06,304.72 193.06,304.72 Z
           M 323.14,304.01
           C 323.14,304.01 323.14,304.72 323.14,304.72
             323.14,304.72 323.84,304.01 323.84,304.01
             323.84,304.01 323.14,304.01 323.14,304.01 Z
           M 172.67,306.83
           C 172.67,306.83 174.08,308.94 174.08,308.94
             174.08,308.94 174.78,308.23 174.78,308.23
             174.78,308.23 174.08,306.83 174.08,306.83
             174.08,306.83 172.67,306.83 172.67,306.83 Z
           M 324.55,307.53
           C 324.55,307.53 324.55,308.23 324.55,308.23
             324.55,308.23 325.25,307.53 325.25,307.53
             325.25,307.53 324.55,307.53 324.55,307.53 Z
           M 39.78,308.94
           C 41.29,311.14 41.64,311.19 41.19,313.86
             41.19,313.86 44.00,313.16 44.00,313.16
             43.06,315.57 41.05,316.83 39.78,313.86
             37.40,315.56 37.21,316.49 34.16,315.97
             34.16,315.97 36.27,308.94 36.27,308.94
             36.27,308.94 39.78,308.94 39.78,308.94 Z
           M 323.84,309.64
           C 323.84,309.64 321.03,314.56 321.03,314.56
             321.03,314.56 323.14,315.97 323.14,315.97
             323.14,315.97 323.84,309.64 323.84,309.64 Z
           M 203.61,311.05
           C 203.61,311.05 205.02,313.86 205.02,313.86
             205.02,313.86 205.02,311.05 205.02,311.05
             205.02,311.05 203.61,311.05 203.61,311.05 Z
           M 8.14,314.56
           C 8.14,314.56 8.14,315.27 8.14,315.27
             8.14,315.27 8.84,314.56 8.84,314.56
             8.84,314.56 8.14,314.56 8.14,314.56 Z
           M 10.25,314.56
           C 10.25,314.56 10.95,322.30 10.95,322.30
             11.83,319.88 11.18,316.93 10.25,314.56 Z
           M 42.59,315.97
           C 42.59,315.97 42.59,316.67 42.59,316.67
             42.59,316.67 41.89,315.97 41.89,315.97
             41.89,315.97 42.59,315.97 42.59,315.97 Z
           M 204.31,315.97
           C 204.31,315.97 204.31,316.67 204.31,316.67
             204.31,316.67 205.02,315.97 205.02,315.97
             205.02,315.97 204.31,315.97 204.31,315.97 Z
           M 199.39,317.38
           C 199.39,317.38 199.39,318.08 199.39,318.08
             199.39,318.08 198.69,317.38 198.69,317.38
             198.69,317.38 199.39,317.38 199.39,317.38 Z
           M 40.48,320.19
           C 40.48,320.19 40.48,323.00 40.48,323.00
             40.48,323.00 35.56,323.00 35.56,323.00
             37.05,320.40 37.62,320.61 40.48,320.19 Z
           M 317.52,324.41
           C 317.52,324.41 318.22,325.11 318.22,325.11
             318.22,325.11 322.44,324.41 322.44,324.41
             322.44,324.41 323.14,321.60 323.14,321.60
             319.87,321.10 318.78,321.19 317.52,324.41 Z
           M 174.78,323.00
           C 174.78,323.00 174.78,326.52 174.78,326.52
             174.78,326.52 169.16,327.93 169.16,327.93
             169.16,327.93 171.27,332.85 171.27,332.85
             171.27,332.85 173.38,331.45 173.38,331.45
             173.38,331.45 175.48,332.85 175.48,332.85
             175.48,332.85 176.89,339.18 176.89,339.18
             176.89,339.18 178.30,339.18 178.30,339.18
             179.04,338.06 179.37,337.33 180.60,336.59
             182.85,335.22 189.37,334.39 191.66,335.67
             194.12,335.29 196.39,335.35 198.48,336.96
             201.24,339.09 199.81,340.97 204.16,340.59
             204.16,340.59 204.16,333.62 204.16,333.62
             203.26,330.90 198.57,328.11 195.88,328.01
             194.71,327.96 194.10,328.31 193.06,328.63
             193.06,328.63 193.06,324.41 193.06,324.41
             193.06,324.41 190.95,327.23 190.95,327.23
             190.95,327.23 188.20,325.03 188.20,325.03
             188.20,325.03 176.89,324.41 176.89,324.41
             176.89,324.41 174.78,323.00 174.78,323.00 Z
           M 200.80,323.00
           C 200.80,323.00 200.80,323.71 200.80,323.71
             200.80,323.71 201.50,323.00 201.50,323.00
             201.50,323.00 200.80,323.00 200.80,323.00 Z
           M 212.75,323.71
           C 212.75,323.71 212.75,324.41 212.75,324.41
             212.75,324.41 212.05,323.71 212.05,323.71
             212.05,323.71 212.75,323.71 212.75,323.71 Z
           M 169.16,323.71
           C 169.54,325.73 169.36,325.73 171.27,326.52
             171.27,326.52 169.16,323.71 169.16,323.71 Z
           M 176.89,324.41
           C 176.89,324.41 176.89,325.11 176.89,325.11
             176.89,325.11 176.19,324.41 176.19,324.41
             176.19,324.41 176.89,324.41 176.89,324.41 Z
           M 214.86,325.11
           C 214.86,325.11 214.86,325.82 214.86,325.82
             214.86,325.82 214.16,325.11 214.16,325.11
             214.16,325.11 214.86,325.11 214.86,325.11 Z
           M 194.47,325.82
           C 194.47,325.82 194.47,326.52 194.47,326.52
             194.47,326.52 195.17,325.82 195.17,325.82
             195.17,325.82 194.47,325.82 194.47,325.82 Z
           M 215.56,326.52
           C 215.56,326.52 215.56,327.23 215.56,327.23
             215.56,327.23 214.86,326.52 214.86,326.52
             214.86,326.52 215.56,326.52 215.56,326.52 Z
           M 321.03,326.52
           C 321.03,326.52 321.03,329.34 321.03,329.34
             321.03,329.34 322.44,326.52 322.44,326.52
             322.44,326.52 321.03,326.52 321.03,326.52 Z
           M 312.59,327.93
           C 312.59,327.93 313.30,330.04 313.30,330.04
             313.30,330.04 311.19,328.63 311.19,328.63
             311.19,328.63 312.59,327.93 312.59,327.93 Z
           M 19.39,329.34
           C 19.39,329.34 19.39,330.04 19.39,330.04
             19.39,330.04 18.69,329.34 18.69,329.34
             18.69,329.34 19.39,329.34 19.39,329.34 Z
           M 53.14,328.63
           C 53.14,328.63 53.14,329.34 53.14,329.34
             53.14,329.34 53.84,328.63 53.84,328.63
             53.84,328.63 53.14,328.63 53.14,328.63 Z
           M 217.67,328.63
           C 217.67,328.63 217.67,329.34 217.67,329.34
             217.67,329.34 218.38,328.63 218.38,328.63
             218.38,328.63 217.67,328.63 217.67,328.63 Z
           M 319.63,332.85
           C 319.63,332.85 319.63,333.56 319.63,333.56
             319.63,333.56 320.33,332.85 320.33,332.85
             320.33,332.85 319.63,332.85 319.63,332.85 Z
           M 55.25,336.37
           C 55.25,336.37 55.25,339.18 55.25,339.18
             55.25,339.18 57.36,336.37 57.36,336.37
             57.36,336.37 55.25,336.37 55.25,336.37 Z
           M 124.16,337.07
           C 124.16,337.07 122.75,339.89 122.75,339.89
             122.75,339.89 124.16,337.07 124.16,337.07 Z
           M 175.48,346.22
           C 175.48,346.22 179.00,347.62 179.00,347.62
             183.35,343.28 187.37,347.08 189.69,341.98
             191.22,338.61 187.32,338.94 185.33,339.43
             181.33,340.40 177.91,342.99 175.48,346.22 Z
           M 207.13,341.29
           C 207.13,341.29 207.13,342.00 207.13,342.00
             207.13,342.00 207.83,341.29 207.83,341.29
             207.83,341.29 207.13,341.29 207.13,341.29 Z
           M 55.25,346.92
           C 55.25,346.92 55.25,347.62 55.25,347.62
             55.25,347.62 54.55,346.92 54.55,346.92
             54.55,346.92 55.25,346.92 55.25,346.92 Z
           M 211.34,351.14
           C 211.34,351.14 213.45,349.03 213.45,349.03
             213.45,349.03 211.34,351.14 211.34,351.14 Z
           M 207.13,350.44
           C 207.13,350.44 207.13,351.14 207.13,351.14
             207.13,351.14 207.83,350.44 207.83,350.44
             207.83,350.44 207.13,350.44 207.13,350.44 Z
           M 327.36,350.44
           C 327.36,350.44 327.36,351.14 327.36,351.14
             327.36,351.14 328.06,350.44 328.06,350.44
             328.06,350.44 327.36,350.44 327.36,350.44 Z
           M 153.69,353.25
           C 153.69,353.25 153.69,353.95 153.69,353.95
             153.69,353.95 152.98,353.25 152.98,353.25
             152.98,353.25 153.69,353.25 153.69,353.25 Z
           M 193.77,356.06
           C 193.77,356.06 188.84,356.06 188.84,356.06
             191.11,354.93 191.44,355.19 193.77,356.06 Z
           M 66.50,360.99
           C 66.50,360.99 66.50,361.69 66.50,361.69
             66.50,361.69 65.80,360.99 65.80,360.99
             65.80,360.99 66.50,360.99 66.50,360.99 Z
           M 72.13,362.40
           C 72.13,362.40 72.13,363.10 72.13,363.10
             72.13,363.10 72.83,362.40 72.83,362.40
             72.83,362.40 72.13,362.40 72.13,362.40 Z
           M 206.42,366.62
           C 206.42,366.62 206.42,367.32 206.42,367.32
             206.42,367.32 205.72,366.62 205.72,366.62
             205.72,366.62 206.42,366.62 206.42,366.62 Z
           M 221.19,371.54
           C 221.19,371.54 221.19,372.24 221.19,372.24
             221.19,372.24 221.89,371.54 221.89,371.54
             221.89,371.54 221.19,371.54 221.19,371.54 Z
           M 81.27,376.46
           C 81.27,376.46 80.56,377.17 80.56,377.17
             80.56,377.17 79.16,375.06 79.16,375.06
             79.16,375.06 81.27,376.46 81.27,376.46 Z
           M 175.48,391.23
           C 177.24,393.91 178.75,393.99 181.11,391.94
             181.11,391.94 184.63,394.75 184.63,394.75
             184.63,394.75 186.03,394.05 186.03,394.05
             186.03,394.05 186.03,393.34 186.03,393.34
             188.53,395.74 189.74,395.55 193.06,396.16
             193.06,396.16 195.17,394.05 195.17,394.05
             195.17,394.05 195.17,396.86 195.17,396.86
             195.17,396.86 192.36,398.97 192.36,398.97
             192.36,398.97 189.55,398.97 189.55,398.97
             189.55,398.97 187.44,397.57 187.44,397.57
             187.44,397.57 187.44,400.38 187.44,400.38
             187.44,400.38 190.25,398.97 190.25,398.97
             192.65,401.25 193.42,400.96 195.17,398.27
             199.13,400.74 200.26,399.96 202.20,404.60
             206.30,401.05 205.85,403.83 209.30,405.95
             211.61,407.36 214.35,407.35 215.60,408.71
             218.78,412.01 215.22,419.59 215.60,423.59
             215.60,423.59 217.67,422.89 217.67,422.89
             217.67,422.89 214.86,428.51 214.86,428.51
             216.08,428.83 216.99,428.92 217.98,429.84
             219.99,431.71 220.76,435.54 219.08,437.66
             219.08,437.66 220.48,439.07 220.48,439.07
             220.48,439.07 211.14,448.87 211.14,448.87
             211.14,448.87 207.13,449.62 207.13,449.62
             207.13,449.62 206.42,446.80 206.42,446.80
             206.42,446.80 205.72,451.02 205.72,451.02
             205.72,451.02 202.91,446.10 202.91,446.10
             202.91,446.10 201.50,448.91 201.50,448.91
             201.50,448.91 198.69,448.21 198.69,448.21
             199.95,444.40 201.70,444.81 205.02,446.10
             205.02,446.10 205.72,442.58 205.72,442.58
             205.72,442.58 203.61,444.69 203.61,444.69
             203.61,444.69 199.39,441.88 199.39,441.88
             198.27,444.17 198.31,444.54 195.88,445.40
             195.88,445.40 195.88,448.21 195.88,448.21
             195.88,448.21 193.77,446.80 193.77,446.80
             196.54,440.57 189.18,439.38 192.36,430.62
             192.36,430.62 186.23,430.18 186.23,430.18
             184.31,429.56 182.89,427.40 179.00,426.50
             177.16,426.07 172.32,425.21 170.56,425.16
             170.56,425.16 155.80,425.16 155.80,425.16
             153.62,425.20 152.66,425.98 150.17,425.72
             146.18,425.35 145.88,423.44 141.73,425.72
             141.73,425.72 137.52,420.78 137.52,420.78
             137.52,420.78 138.22,417.96 138.22,417.96
             138.22,417.96 141.73,418.67 141.73,418.67
             141.73,418.67 140.33,415.15 140.33,415.15
             140.33,415.15 144.55,415.85 144.55,415.85
             144.55,415.85 143.14,410.23 143.14,410.23
             143.41,409.16 143.93,405.80 144.54,405.25
             145.85,403.77 147.84,405.28 149.44,405.25
             152.47,405.44 153.02,402.66 159.31,403.90
             159.31,403.90 159.31,399.68 159.31,399.68
             159.31,399.68 160.72,400.38 160.72,400.38
             160.72,400.38 160.02,395.45 160.02,395.45
             160.02,395.45 175.48,391.23 175.48,391.23 Z
           M 160.02,396.16
           C 160.02,396.16 160.02,396.86 160.02,396.86
             160.02,396.86 159.31,396.16 159.31,396.16
             159.31,396.16 160.02,396.16 160.02,396.16 Z
           M 11.66,401.79
           C 11.66,401.79 11.66,402.49 11.66,402.49
             11.66,402.49 12.36,401.79 12.36,401.79
             12.36,401.79 11.66,401.79 11.66,401.79 Z
           M 20.80,403.19
           C 20.80,403.19 20.80,403.90 20.80,403.90
             20.80,403.90 20.09,403.19 20.09,403.19
             20.09,403.19 20.80,403.19 20.80,403.19 Z
           M 136.81,415.15
           C 136.81,415.15 136.81,418.67 136.81,418.67
             136.81,418.67 131.19,415.85 131.19,415.85
             131.19,415.85 136.81,415.15 136.81,415.15 Z
           M 126.97,417.26
           C 126.97,417.26 129.08,421.48 129.08,421.48
             129.08,421.48 124.86,420.07 124.86,420.07
             124.86,420.07 126.97,417.26 126.97,417.26 Z
           M 119.23,420.07
           C 119.23,420.07 120.64,423.59 120.64,423.59
             120.64,423.59 116.42,422.89 116.42,422.89
             116.42,422.89 116.42,421.48 116.42,421.48
             116.42,421.48 119.23,420.07 119.23,420.07 Z
           M 123.45,431.33
           C 123.45,431.33 120.64,432.03 120.64,432.03
             120.64,432.03 123.45,431.33 123.45,431.33 Z
           M 191.66,440.47
           C 191.66,440.47 188.84,439.77 188.84,439.77
             188.84,439.77 189.55,437.66 189.55,437.66
             189.55,437.66 191.66,440.47 191.66,440.47 Z" />
</svg>
